{"title":"The Sensuous Nurse - L'infermiera (Ursula Andress) (1975)","uid":6719546,"size":734027304,"categoryP":"video","categoryS":"movies","magnet":"?xt=urn:btih:adad9ccc6b0599bc82ed1a3e6bf321d688d79231&amp;dn=The+Sensuous+Nurse+-+L%5C%27infermiera+%28Ursula+Andress%29+%281975%29&amp;tr=udp%3A%2F%2Ftracker.openbittorrent.com%3A80&amp;tr=udp%3A%2F%2Fopen.demonii.com%3A1337&amp;tr=udp%3A%2F%2Ftracker.coppersurfer.tk%3A6969&amp;tr=udp%3A%2F%2Fexodus.desync.com%3A6969","seeders":1,"leechers":0,"uploader":"jenchai","files":-1,"time":1317744254,"description":"\nNo subs, so if anyone can find it in any language please give me the link by posting on the comments section, I will try make an English one.\n\nEven with no subs, the only reason to see this movie is Ursula Andress naked, the hottest Bond Girl from Dr. No.\n\nIts not my rip, just something I found on web and sharing it.\n\n\nEnjoy !!!!!!!!!!\n\n\nFormat                           : AVI\nFormat/Info                      : Audio Video Interleave\nFile size                        : 700 MiB\nDuration                         : 1h 37mn\nOverall bit rate                 : 1 002 Kbps\n\nVideo\nID                               : 0\nFormat                           : MPEG-4 Visual\nFormat settings, BVOP            : Yes\nFormat settings, QPel            : No\nFormat settings, GMC             : No warppoints\nFormat settings, Matrix          : Default (MPEG)\nCodec ID                         : XVID\nCodec ID/Hint                    : XviD\nDuration                         : 1h 37mn\nBit rate                         : 926 Kbps\nWidth                            : 544 pixels\nHeight                           : 352 pixels\nDisplay aspect ratio             : 3:2\nFrame rate                       : 25.000 fps\nColor space                      : YUV\nChroma subsampling               : 4:2:0\nBit depth                        : 8 bits\nScan type                        : Progressive\nCompression mode                 : Lossy\nBits/(Pixel*Frame)               : 0.193\nStream size                      : 647 MiB (92%)\n\nAudio\nID                               : 1\nFormat                           : MPEG Audio\nFormat version                   : Version 1\nFormat profile                   : Layer 3\nMode                             : Joint stereo\nMode extension                   : MS Stereo\nCodec ID                         : 55\nCodec ID/Hint                    : MP3\nDuration                         : 1h 37mn\nBit rate mode                    : Constant\nBit rate                         : 64.0 Kbps\nChannel(s)                       : 2 channels\nSampling rate                    : 44.1 KHz\nCompression mode                 : Lossy\nStream size                      : 44.7 MiB (6%)\nAlignment                        : Split accross interleaves\nInterleave, duration             : 26 ms (0.65 video frame)\n\t\t\n","torrent":{"xt":"urn:btih:adad9ccc6b0599bc82ed1a3e6bf321d688d79231","amp;dn":"The+Sensuous+Nurse+-+L%5C%27infermiera+%28Ursula+Andress%29+%281975%29","amp;tr":["udp%3A%2F%2Ftracker.openbittorrent.com%3A80","udp%3A%2F%2Fopen.demonii.com%3A1337","udp%3A%2F%2Ftracker.coppersurfer.tk%3A6969","udp%3A%2F%2Fexodus.desync.com%3A6969"],"infoHash":"adad9ccc6b0599bc82ed1a3e6bf321d688d79231","infoHashBuffer":{"type":"Buffer","data":[173,173,156,204,107,5,153,188,130,237,26,62,107,243,33,214,136,215,146,49]},"announce":[],"urlList":[]}}